<?xml version="1.0" encoding="UTF-8" standalone="no"?><!DOCTYPE svg PUBLIC "-//W3C//DTD SVG 1.1//EN" "http://www.w3.org/Graphics/SVG/1.1/DTD/svg11.dtd"><svg width="100%" height="100%" viewBox="0 0 960 249" version="1.1" xmlns="http://www.w3.org/2000/svg" xmlns:xlink="http://www.w3.org/1999/xlink" xml:space="preserve" xmlns:serif="http://www.serif.com/" style="fill-rule:evenodd;clip-rule:evenodd;stroke-linejoin:round;stroke-miterlimit:2;"><rect id="logo" x="0" y="0" width="960" height="248.923" style="fill:none;"/><g><g id="gvmy_logo_w_horizontal_tagline"><rect x="107.559" y="18.923" width="816.882" height="211.077" style="fill:none;"/><g id="govicle_logo_tagline"><path d="M450.972,94.447c1.301,-1.563 2.904,-2.343 4.813,-2.343c1.735,0 3.206,0.609 4.419,1.822c1.213,1.213 1.822,2.685 1.822,4.419c0,1.559 -0.433,2.816 -1.301,3.771l-0.131,0.131l-31.463,42.386c-1.559,1.992 -3.534,3.617 -5.916,4.874c-2.383,1.257 -4.963,1.888 -7.735,1.888c-2.601,-0 -5.049,-0.565 -7.349,-1.691c-2.295,-1.13 -4.222,-2.689 -5.785,-4.682l-31.593,-42.254c-0.521,-0.608 -0.954,-1.278 -1.301,-2.019c-0.346,-0.735 -0.52,-1.537 -0.52,-2.404c0,-1.734 0.607,-3.206 1.821,-4.419c1.213,-1.213 2.687,-1.822 4.42,-1.822c2.08,0 3.727,0.824 4.941,2.47l30.295,40.437c0.604,0.692 1.366,1.454 2.273,2.277c0.911,0.823 1.843,1.235 2.798,1.235c0.951,0 1.883,-0.412 2.794,-1.235c0.911,-0.823 1.625,-1.585 2.146,-2.277l30.552,-40.564Zm-290.886,26.002c0,-1.735 0.607,-3.206 1.82,-4.419c1.214,-1.213 2.688,-1.822 4.421,-1.822l49.797,-0c2.167,-0 4.204,0.412 6.111,1.235c1.907,0.823 3.575,1.949 5.005,3.381c1.431,1.428 2.536,3.118 3.316,5.071c0.78,1.949 1.17,4.008 1.17,6.176l-0,2.859c-0,2.168 -0.39,4.227 -1.17,6.176c-0.78,1.949 -1.885,3.639 -3.316,5.071c-1.43,1.432 -3.098,2.558 -5.005,3.381c-1.907,0.824 -3.944,1.235 -6.111,1.235l-67.74,0c-3.553,0 -6.717,-0.867 -9.491,-2.601c-2.774,-1.735 -5.136,-3.964 -7.086,-6.697c-1.95,-2.728 -3.445,-5.785 -4.485,-9.166c-1.04,-3.381 -1.561,-6.674 -1.561,-9.88c0,-3.294 0.542,-6.609 1.626,-9.946c1.083,-3.337 2.665,-6.373 4.745,-9.101c2.081,-2.733 4.594,-4.962 7.541,-6.696c2.947,-1.735 6.285,-2.602 10.012,-2.602l75.8,0c1.734,0 3.207,0.609 4.421,1.822c1.213,1.213 1.82,2.685 1.82,4.419c-0,1.734 -0.607,3.206 -1.82,4.423c-1.214,1.214 -2.687,1.818 -4.421,1.818l-72.94,-0c-3.034,-0 -5.482,0.543 -7.346,1.625c-1.863,1.086 -3.337,2.409 -4.421,3.968c-1.083,1.559 -1.82,3.271 -2.21,5.132c-0.39,1.866 -0.585,3.579 -0.585,5.138c-0,1.559 0.195,3.271 0.585,5.137c0.39,1.861 1.127,3.574 2.21,5.133c1.084,1.563 2.558,2.882 4.421,3.968c1.864,1.081 4.312,1.624 7.346,1.624l63.059,0c1.04,0 1.972,-0.477 2.795,-1.432c0.824,-0.95 1.235,-2.08 1.235,-3.376c0,-1.301 -0.368,-2.431 -1.105,-3.381c-0.737,-0.955 -1.712,-1.432 -2.925,-1.432l-49.277,-0c-1.733,-0 -3.207,-0.605 -4.421,-1.822c-1.213,-1.213 -1.82,-2.685 -1.82,-4.419Zm327.28,22.103c0,1.735 -0.609,3.206 -1.822,4.419c-1.213,1.213 -2.684,1.822 -4.419,1.822c-1.734,0 -3.205,-0.609 -4.423,-1.822c-1.213,-1.213 -1.818,-2.684 -1.818,-4.419l0,-44.207c0,-1.734 0.605,-3.206 1.818,-4.419c1.218,-1.213 2.689,-1.822 4.423,-1.822c1.735,0 3.206,0.609 4.419,1.822c1.213,1.213 1.822,2.685 1.822,4.419l0,44.207Zm149.926,6.241c-2.431,0 -4.726,-0.455 -6.894,-1.366c-2.168,-0.911 -4.051,-2.146 -5.654,-3.705c-1.603,-1.559 -2.882,-3.381 -3.836,-5.462c-0.955,-2.08 -1.433,-4.331 -1.433,-6.757l0,-33.158c0,-1.734 0.609,-3.206 1.822,-4.419c1.214,-1.213 2.689,-1.822 4.419,-1.822c1.647,0 3.101,0.609 4.358,1.822c1.257,1.213 1.883,2.685 1.883,4.419l0,33.158c0,1.296 0.499,2.426 1.498,3.376c0.994,0.955 2.146,1.432 3.447,1.432l78.008,0c1.735,0 3.206,0.605 4.419,1.822c1.218,1.213 1.822,2.685 1.822,4.419c0,1.735 -0.604,3.206 -1.822,4.419c-1.213,1.213 -2.684,1.822 -4.419,1.822l-77.618,0Zm119.618,0c-1.905,0 -3.814,-0.411 -5.719,-1.235c-1.91,-0.823 -3.6,-1.971 -5.072,-3.447c-1.476,-1.471 -2.689,-3.249 -3.639,-5.329c-0.955,-2.081 -1.432,-4.419 -1.432,-7.021l-0,-11.702c-0,-2.339 0.67,-3.902 2.014,-4.682c1.345,-0.779 3.447,-1.169 6.307,-1.169l87.24,-0c1.735,-0 3.211,0.609 4.424,1.822c1.213,1.213 1.817,2.684 1.817,4.419c0,1.734 -0.604,3.206 -1.817,4.419c-1.213,1.217 -2.689,1.822 -4.424,1.822l-83.08,-0l0,6.372c0,0.867 0.368,1.625 1.104,2.273c0.74,0.652 1.712,0.976 2.925,0.976l81.911,0c1.735,0 3.21,0.605 4.424,1.822c1.213,1.213 1.822,2.685 1.822,4.419c-0,1.735 -0.609,3.206 -1.822,4.419c-1.214,1.213 -2.689,1.822 -4.424,1.822l-82.559,0Zm-397.729,-28.344c0,3.293 -0.542,6.608 -1.625,9.946c-1.084,3.337 -2.666,6.372 -4.746,9.1c-2.08,2.733 -4.594,4.962 -7.541,6.697c-2.947,1.734 -6.284,2.601 -10.011,2.601l-59.288,0c-3.554,-0.175 -6.718,-1.147 -9.492,-2.925c-2.774,-1.778 -5.136,-4.008 -7.086,-6.697c-1.95,-2.684 -3.445,-5.676 -4.486,-8.969c-1.04,-3.298 -1.56,-6.547 -1.56,-9.753c0,-3.294 0.542,-6.609 1.625,-9.946c1.084,-3.337 2.666,-6.373 4.746,-9.101c2.08,-2.733 4.594,-4.962 7.541,-6.696c2.947,-1.735 6.284,-2.602 10.011,-2.602l59.289,0c3.554,0.175 6.717,1.148 9.491,2.926c2.774,1.778 5.136,4.011 7.086,6.696c1.95,2.689 3.445,5.676 4.486,8.974c1.04,3.293 1.56,6.543 1.56,9.749Zm141.328,-0c0,-3.294 0.543,-6.609 1.625,-9.946c1.086,-3.337 2.667,-6.373 4.748,-9.101c2.08,-2.733 4.594,-4.962 7.541,-6.696c2.948,-1.735 6.285,-2.602 10.012,-2.602l75.801,0c1.734,0 3.206,0.609 4.419,1.822c1.213,1.213 1.822,2.685 1.822,4.419c-0,1.734 -0.609,3.206 -1.822,4.423c-1.213,1.214 -2.685,1.818 -4.419,1.818l-73.073,-0c-3.03,-0 -5.483,0.543 -7.344,1.625c-1.866,1.086 -3.337,2.409 -4.424,3.968c-1.081,1.559 -1.817,3.271 -2.207,5.132c-0.39,1.866 -0.587,3.579 -0.587,5.138c0,1.559 0.197,3.271 0.587,5.137c0.39,1.861 1.126,3.574 2.207,5.133c1.087,1.563 2.558,2.882 4.424,3.968c1.861,1.081 4.314,1.624 7.344,1.624l73.073,0c1.734,0 3.206,0.605 4.419,1.822c1.213,1.213 1.822,2.685 1.822,4.419c-0,1.735 -0.609,3.206 -1.822,4.419c-1.213,1.213 -2.685,1.822 -4.419,1.822l-77.102,0c-3.556,0 -6.718,-0.867 -9.49,-2.601c-2.777,-1.735 -5.138,-3.964 -7.087,-6.697c-1.948,-2.728 -3.446,-5.785 -4.484,-9.166c-1.043,-3.381 -1.564,-6.674 -1.564,-9.88Zm-167.982,15.862c2.947,0 5.374,-0.543 7.281,-1.624c1.907,-1.086 3.403,-2.405 4.486,-3.968c1.083,-1.559 1.82,-3.272 2.21,-5.133c0.39,-1.866 0.585,-3.578 0.585,-5.137c0,-1.559 -0.195,-3.272 -0.585,-5.138c-0.39,-1.861 -1.127,-3.573 -2.21,-5.132c-1.083,-1.559 -2.579,-2.882 -4.486,-3.968c-1.907,-1.082 -4.334,-1.625 -7.281,-1.625l-52.527,-0c-3.034,-0 -5.483,0.543 -7.346,1.625c-1.864,1.086 -3.337,2.409 -4.421,3.968c-1.083,1.559 -1.82,3.271 -2.21,5.132c-0.39,1.866 -0.585,3.579 -0.585,5.138c-0,1.559 0.195,3.271 0.585,5.137c0.39,1.861 1.127,3.574 2.21,5.133c1.084,1.563 2.557,2.882 4.421,3.968c1.863,1.081 4.312,1.624 7.346,1.624l52.527,0Zm408.521,-37.966c-0,-1.734 0.608,-3.206 1.821,-4.419c1.214,-1.213 2.685,-1.822 4.419,-1.822l92.181,0c1.735,0 3.21,0.609 4.424,1.822c1.213,1.213 1.822,2.685 1.822,4.419c-0,1.734 -0.609,3.206 -1.822,4.423c-1.214,1.214 -2.689,1.818 -4.424,1.818l-92.181,-0c-1.734,-0 -3.205,-0.604 -4.419,-1.818c-1.213,-1.217 -1.821,-2.689 -1.821,-4.423Zm138.415,-21.464c0.508,-0 0.955,0.188 1.332,0.569c0.381,0.381 0.573,0.85 0.573,1.41c0,0.508 -0.192,0.938 -0.573,1.292c-0.377,0.355 -0.824,0.535 -1.332,0.535l-8.062,-0l-0,7.988c-0,0.556 -0.189,1.025 -0.57,1.406c-0.381,0.381 -0.849,0.569 -1.41,0.569c-0.556,0 -1.012,-0.188 -1.366,-0.569c-0.355,-0.381 -0.535,-0.85 -0.535,-1.406l0,-7.988l-8.216,-0c-0.508,-0 -0.937,-0.193 -1.292,-0.574c-0.354,-0.381 -0.534,-0.797 -0.534,-1.253c-0,-0.56 0.188,-1.029 0.569,-1.41c0.381,-0.381 0.85,-0.569 1.411,-0.569l20.005,-0Zm27.846,11.794c-0,0.556 -0.189,1.025 -0.57,1.406c-0.381,0.381 -0.823,0.569 -1.331,0.569c-0.561,0 -1.029,-0.188 -1.406,-0.569c-0.381,-0.381 -0.574,-0.85 -0.574,-1.406l0,-6.394l-6.389,7.305c-0.303,0.355 -0.684,0.622 -1.144,0.797c-0.455,0.18 -0.911,0.267 -1.366,0.267c-1.064,0 -1.927,-0.381 -2.588,-1.138l-6.39,-7.231l-0,6.394c-0,0.556 -0.188,1.025 -0.569,1.406c-0.381,0.381 -0.85,0.569 -1.411,0.569c-0.503,0 -0.95,-0.188 -1.331,-0.569c-0.377,-0.381 -0.569,-0.85 -0.569,-1.406l-0,-8.523c-0,-0.862 0.28,-1.624 0.836,-2.281c0.561,-0.662 1.296,-0.99 2.207,-0.99c0.557,-0 1.052,0.127 1.485,0.381c0.429,0.254 0.797,0.582 1.104,0.99l6.845,7.76c0.101,0.101 0.228,0.149 0.381,0.149c0.101,0 0.201,-0.048 0.302,-0.149l6.771,-7.686c0.407,-0.407 0.815,-0.749 1.218,-1.029c0.407,-0.276 0.889,-0.416 1.445,-0.416c0.963,-0 1.712,0.328 2.246,0.99c0.53,0.657 0.798,1.419 0.798,2.281l-0,8.523Z" style="fill:#fefffe;"/><g><path d="M138.67,215.599l-1.264,-4.159l-6.385,0l-1.264,4.159l-3.977,0l6.159,-17.545l4.528,0l6.18,17.545l-3.977,0Zm-2.162,-7.267c-1.163,-3.767 -1.815,-5.899 -1.978,-6.392c-0.143,-0.496 -0.245,-0.886 -0.306,-1.173c-0.265,1.02 -1.02,3.543 -2.264,7.565l4.548,-0Z" style="fill:#eef7f4;fill-rule:nonzero;"/><path d="M156.68,200.959c-1.387,-0 -2.468,0.524 -3.243,1.572c-0.754,1.047 -1.142,2.507 -1.142,4.379c-0,3.896 1.469,5.844 4.385,5.844c1.224,-0 2.713,-0.306 4.467,-0.92l0,3.108c-1.448,0.598 -3.039,0.896 -4.814,0.896c-2.529,-0 -4.487,-0.771 -5.833,-2.313c-1.346,-1.542 -2.019,-3.755 -2.019,-6.639c-0,-1.815 0.347,-3.408 0.999,-4.773c0.653,-1.366 1.612,-2.415 2.856,-3.145c1.224,-0.728 2.692,-1.093 4.344,-1.093c1.693,-0 3.406,0.412 5.12,1.232l-1.204,3.01c-0.652,-0.31 -1.305,-0.581 -1.958,-0.812c-0.673,-0.23 -1.325,-0.346 -1.958,-0.346Z" style="fill:#eef7f4;fill-rule:nonzero;"/><path d="M176.689,200.959c-1.407,-0 -2.468,0.524 -3.243,1.572c-0.755,1.047 -1.142,2.507 -1.142,4.379c-0,3.896 1.448,5.844 4.385,5.844c1.224,-0 2.713,-0.306 4.447,-0.92l-0,3.108c-1.428,0.598 -3.019,0.896 -4.794,0.896c-2.549,-0 -4.487,-0.771 -5.833,-2.313c-1.346,-1.542 -2.019,-3.755 -2.019,-6.639c-0,-1.815 0.326,-3.408 0.979,-4.773c0.673,-1.366 1.611,-2.415 2.855,-3.145c1.245,-0.728 2.693,-1.093 4.365,-1.093c1.693,-0 3.406,0.412 5.12,1.232l-1.204,3.01c-0.652,-0.31 -1.305,-0.581 -1.978,-0.812c-0.653,-0.23 -1.306,-0.346 -1.938,-0.346Z" style="fill:#eef7f4;fill-rule:nonzero;"/><path d="M199.819,215.599l-10.056,0l0,-17.473l10.056,-0l-0,3.037l-6.364,-0l0,3.836l5.915,0l0,3.035l-5.915,0l0,4.506l6.364,-0l-0,3.059Z" style="fill:#eef7f4;fill-rule:nonzero;"/><path d="M208.365,215.599l-0,-17.473l3.692,-0l-0,14.414l7.098,-0l-0,3.059l-10.79,0Z" style="fill:#eef7f4;fill-rule:nonzero;"/><path d="M237.144,215.599l-10.055,0l-0,-17.473l10.055,-0l0,3.037l-6.363,-0l-0,3.836l5.915,0l-0,3.035l-5.915,0l-0,4.506l6.363,-0l0,3.059Z" style="fill:#eef7f4;fill-rule:nonzero;"/><path d="M249.382,205.882l1.204,0c1.162,0 2.039,-0.195 2.59,-0.585c0.551,-0.39 0.836,-1.004 0.836,-1.84c0,-0.83 -0.285,-1.419 -0.856,-1.77c-0.571,-0.349 -1.448,-0.524 -2.652,-0.524l-1.122,-0l0,4.719Zm0,3.013l0,6.704l-3.691,0l-0,-17.473l5.078,-0c2.387,-0 4.141,0.432 5.283,1.297c1.122,0.865 1.713,2.178 1.713,3.938c0,1.028 -0.285,1.942 -0.856,2.744c-0.571,0.799 -1.367,1.427 -2.407,1.88c2.631,3.929 4.344,6.466 5.14,7.614l-4.12,0l-4.161,-6.704l-1.979,-0Z" style="fill:#eef7f4;fill-rule:nonzero;"/><path d="M277.428,215.599l-1.265,-4.159l-6.364,0l-1.264,4.159l-3.998,0l6.16,-17.545l4.528,0l6.2,17.545l-3.997,0Zm-2.142,-7.267c-1.183,-3.767 -1.836,-5.899 -1.979,-6.392c-0.142,-0.496 -0.265,-0.886 -0.326,-1.173c-0.265,1.02 -1.02,3.543 -2.244,7.565l4.549,-0Z" style="fill:#eef7f4;fill-rule:nonzero;"/><path d="M293.541,215.599l-3.692,0l0,-14.389l-4.752,-0l-0,-3.084l13.196,-0l0,3.084l-4.752,-0l-0,14.389Z" style="fill:#eef7f4;fill-rule:nonzero;"/><rect x="305.881" y="198.126" width="3.704" height="17.472" style="fill:#eef7f4;"/><path d="M334.375,215.599l-4.712,0l-7.588,-13.219l-0.122,0c0.163,2.336 0.245,4 0.245,4.997l-0,8.222l-3.325,0l0,-17.473l4.671,-0l7.588,13.086l0.102,-0c-0.123,-2.27 -0.184,-3.875 -0.184,-4.816l-0,-8.27l3.325,-0l-0,17.473Z" style="fill:#eef7f4;fill-rule:nonzero;"/><path d="M350.304,205.786l6.935,0l0,9.061c-1.122,0.365 -2.182,0.622 -3.182,0.771c-0.979,0.146 -1.999,0.22 -3.039,0.22c-2.631,-0 -4.65,-0.775 -6.037,-2.325c-1.387,-1.548 -2.081,-3.774 -2.081,-6.674c0,-2.821 0.796,-5.02 2.407,-6.596c1.611,-1.579 3.855,-2.368 6.711,-2.368c1.794,-0 3.528,0.359 5.201,1.077l-1.245,2.963c-1.264,-0.638 -2.59,-0.956 -3.977,-0.956c-1.591,-0 -2.876,0.538 -3.855,1.613c-0.958,1.075 -1.428,2.521 -1.428,4.338c0,1.897 0.388,3.345 1.163,4.345c0.775,0.999 1.897,1.499 3.386,1.499c0.775,-0 1.55,-0.08 2.345,-0.239l0,-3.645l-3.304,0l0,-3.084Z" style="fill:#eef7f4;fill-rule:nonzero;"/><path d="M387.854,210.747c0,1.577 -0.571,2.821 -1.693,3.728c-1.142,0.908 -2.712,1.363 -4.752,1.363c-1.856,-0 -3.508,-0.351 -4.936,-1.053l-0,-3.44c1.163,0.526 2.182,0.895 2.998,1.111c0.796,0.214 1.55,0.322 2.223,0.322c0.816,0 1.449,-0.155 1.877,-0.467c0.428,-0.31 0.653,-0.771 0.653,-1.385c-0,-0.342 -0.102,-0.648 -0.286,-0.913c-0.183,-0.268 -0.469,-0.525 -0.836,-0.771c-0.367,-0.247 -1.142,-0.643 -2.264,-1.183c-1.081,-0.504 -1.877,-0.986 -2.407,-1.446c-0.53,-0.463 -0.959,-1.002 -1.285,-1.614c-0.306,-0.614 -0.469,-1.332 -0.469,-2.152c-0,-1.546 0.51,-2.761 1.57,-3.645c1.041,-0.885 2.489,-1.327 4.345,-1.327c0.897,-0 1.774,0.108 2.59,0.324c0.837,0.214 1.693,0.516 2.591,0.908l-1.204,2.88c-0.918,-0.384 -1.693,-0.649 -2.305,-0.802c-0.611,-0.151 -1.203,-0.226 -1.794,-0.226c-0.714,-0 -1.245,0.163 -1.612,0.489c-0.387,0.326 -0.571,0.753 -0.571,1.279c0,0.326 0.082,0.612 0.224,0.855c0.164,0.242 0.408,0.479 0.735,0.705c0.326,0.227 1.101,0.635 2.345,1.224c1.632,0.781 2.754,1.565 3.366,2.35c0.591,0.785 0.897,1.746 0.897,2.886Z" style="fill:#eef7f4;fill-rule:nonzero;"/><path d="M403.315,215.599l-4.202,-13.708l-0.102,-0c0.143,2.788 0.224,4.648 0.224,5.58l0,8.128l-3.324,0l-0,-17.473l5.058,-0l4.12,13.361l0.082,0l4.385,-13.361l5.038,-0l0,17.473l-3.447,0l0,-8.271c0,-0.389 0,-0.84 0.02,-1.35c0,-0.51 0.062,-1.864 0.164,-4.063l-0.123,0l-4.507,13.684l-3.386,0Z" style="fill:#eef7f4;fill-rule:nonzero;"/><path d="M434.583,215.599l-1.265,-4.159l-6.364,0l-1.264,4.159l-3.998,0l6.16,-17.545l4.528,0l6.2,17.545l-3.997,0Zm-2.142,-7.267c-1.183,-3.767 -1.836,-5.899 -1.978,-6.392c-0.143,-0.496 -0.266,-0.886 -0.327,-1.173c-0.265,1.02 -0.999,3.543 -2.264,7.565l4.569,-0Z" style="fill:#eef7f4;fill-rule:nonzero;"/><path d="M449.37,205.882l1.203,0c1.163,0 2.04,-0.195 2.591,-0.585c0.571,-0.39 0.836,-1.004 0.836,-1.84c0,-0.83 -0.285,-1.419 -0.857,-1.77c-0.571,-0.349 -1.448,-0.524 -2.631,-0.524l-1.142,-0l0,4.719Zm0,3.013l0,6.704l-3.692,0l0,-17.473l5.079,-0c2.386,-0 4.141,0.432 5.283,1.297c1.142,0.865 1.713,2.178 1.713,3.938c0,1.028 -0.286,1.942 -0.857,2.744c-0.571,0.799 -1.366,1.427 -2.406,1.88c2.631,3.929 4.344,6.466 5.14,7.614l-4.1,0l-4.181,-6.704l-1.979,-0Z" style="fill:#eef7f4;fill-rule:nonzero;"/><path d="M473.458,215.599l-3.691,0l-0,-14.389l-4.753,-0l0,-3.084l13.197,-0l-0,3.084l-4.753,-0l0,14.389Z" style="fill:#eef7f4;fill-rule:nonzero;"/><path d="M504.441,215.599l-4.202,-13.708l-0.102,-0c0.143,2.788 0.224,4.648 0.224,5.58l0,8.128l-3.304,0l0,-17.473l5.038,-0l4.141,13.361l0.061,0l4.385,-13.361l5.038,-0l-0,17.473l-3.447,0l-0,-8.271c-0,-0.389 -0,-0.84 0.02,-1.35c0,-0.51 0.061,-1.864 0.163,-4.063l-0.102,0l-4.507,13.684l-3.406,0Z" style="fill:#eef7f4;fill-rule:nonzero;"/><path d="M540.889,206.839c0,2.892 -0.734,5.115 -2.162,6.668c-1.428,1.554 -3.488,2.331 -6.16,2.331c-2.672,-0 -4.732,-0.777 -6.18,-2.331c-1.427,-1.553 -2.141,-3.784 -2.141,-6.693c-0,-2.908 0.714,-5.127 2.162,-6.661c1.427,-1.534 3.487,-2.301 6.18,-2.301c2.692,0 4.732,0.773 6.16,2.317c1.427,1.546 2.141,3.77 2.141,6.67Zm-12.768,-0c-0,1.952 0.367,3.422 1.122,4.41c0.734,0.987 1.835,1.482 3.324,1.482c2.958,0 4.426,-1.964 4.426,-5.892c0,-3.937 -1.468,-5.905 -4.405,-5.905c-1.469,0 -2.591,0.498 -3.325,1.489c-0.754,0.991 -1.142,2.464 -1.142,4.416Z" style="fill:#eef7f4;fill-rule:nonzero;"/><path d="M549.395,198.126l5.445,-0c2.468,-0 4.263,0.352 5.385,1.058c1.122,0.706 1.693,1.826 1.693,3.364c-0,1.044 -0.245,1.9 -0.734,2.569c-0.49,0.669 -1.142,1.073 -1.958,1.208l-0,0.12c1.101,0.247 1.897,0.708 2.386,1.385c0.49,0.677 0.734,1.579 0.734,2.701c0,1.595 -0.571,2.837 -1.713,3.73c-1.163,0.892 -2.733,1.338 -4.691,1.338l-6.547,0l-0,-17.473Zm3.712,6.92l2.141,0c1,0 1.734,-0.155 2.183,-0.467c0.448,-0.31 0.673,-0.824 0.673,-1.54c-0,-0.671 -0.245,-1.15 -0.734,-1.44c-0.49,-0.292 -1.265,-0.436 -2.326,-0.436l-1.937,-0l-0,3.883Zm-0,2.939l-0,4.555l2.406,-0c1.02,-0 1.775,-0.196 2.264,-0.586c0.49,-0.391 0.735,-0.989 0.735,-1.792c-0,-1.451 -1.04,-2.177 -3.121,-2.177l-2.284,0Z" style="fill:#eef7f4;fill-rule:nonzero;"/><rect x="570.729" y="198.126" width="3.704" height="17.472" style="fill:#eef7f4;"/><path d="M583.742,215.599l0,-17.473l3.692,-0l0,14.414l7.098,-0l-0,3.059l-10.79,0Z" style="fill:#eef7f4;fill-rule:nonzero;"/><rect x="602.466" y="198.126" width="3.704" height="17.472" style="fill:#eef7f4;"/><path d="M622.19,215.599l-3.692,0l-0,-14.389l-4.752,-0l-0,-3.084l13.196,-0l0,3.084l-4.752,-0l-0,14.389Z" style="fill:#eef7f4;fill-rule:nonzero;"/><path d="M639.955,205.321l3.651,-7.195l3.998,-0l-5.793,10.673l0,6.8l-3.692,0l0,-6.682l-5.792,-10.791l4.018,-0l3.61,7.195Z" style="fill:#eef7f4;fill-rule:nonzero;"/><path d="M676.261,210.747c-0,1.577 -0.571,2.821 -1.693,3.728c-1.142,0.908 -2.733,1.363 -4.753,1.363c-1.856,-0 -3.508,-0.351 -4.935,-1.053l-0,-3.44c1.162,0.526 2.162,0.895 2.977,1.111c0.816,0.214 1.571,0.322 2.244,0.322c0.816,0 1.448,-0.155 1.877,-0.467c0.428,-0.31 0.652,-0.771 0.652,-1.385c0,-0.342 -0.102,-0.648 -0.285,-0.913c-0.204,-0.268 -0.469,-0.525 -0.837,-0.771c-0.387,-0.247 -1.142,-0.643 -2.284,-1.183c-1.061,-0.504 -1.856,-0.986 -2.386,-1.446c-0.551,-0.463 -0.959,-1.002 -1.285,-1.614c-0.327,-0.614 -0.49,-1.332 -0.49,-2.152c0,-1.546 0.53,-2.761 1.591,-3.645c1.04,-0.885 2.488,-1.327 4.344,-1.327c0.898,-0 1.775,0.108 2.591,0.324c0.816,0.214 1.693,0.516 2.59,0.908l-1.203,2.88c-0.918,-0.384 -1.693,-0.649 -2.305,-0.802c-0.612,-0.151 -1.203,-0.226 -1.795,-0.226c-0.714,-0 -1.244,0.163 -1.611,0.489c-0.388,0.326 -0.571,0.753 -0.571,1.279c-0,0.326 0.081,0.612 0.224,0.855c0.163,0.242 0.388,0.479 0.734,0.705c0.327,0.227 1.102,0.635 2.346,1.224c1.632,0.781 2.753,1.565 3.345,2.35c0.612,0.785 0.918,1.746 0.918,2.886Z" style="fill:#eef7f4;fill-rule:nonzero;"/><path d="M700.186,206.839c-0,2.892 -0.714,5.115 -2.162,6.668c-1.428,1.554 -3.488,2.331 -6.16,2.331c-2.672,-0 -4.732,-0.777 -6.16,-2.331c-1.448,-1.553 -2.162,-3.784 -2.162,-6.693c0,-2.908 0.714,-5.127 2.162,-6.661c1.428,-1.534 3.488,-2.301 6.181,-2.301c2.692,0 4.752,0.773 6.159,2.317c1.428,1.546 2.142,3.77 2.142,6.67Zm-12.748,-0c0,1.952 0.367,3.422 1.101,4.41c0.735,0.987 1.857,1.482 3.325,1.482c2.958,0 4.426,-1.964 4.426,-5.892c0,-3.937 -1.468,-5.905 -4.405,-5.905c-1.469,0 -2.591,0.498 -3.325,1.489c-0.755,0.991 -1.122,2.464 -1.122,4.416Z" style="fill:#eef7f4;fill-rule:nonzero;"/><path d="M708.691,215.599l0,-17.473l3.712,-0l0,14.414l7.078,-0l-0,3.059l-10.79,0Z" style="fill:#eef7f4;fill-rule:nonzero;"/><path d="M741.407,198.126l0,11.305c0,1.291 -0.285,2.423 -0.877,3.394c-0.571,0.973 -1.407,1.718 -2.509,2.236c-1.081,0.518 -2.366,0.777 -3.855,0.777c-2.264,-0 -3.997,-0.575 -5.241,-1.728c-1.245,-1.15 -1.857,-2.727 -1.857,-4.726l0,-11.258l3.692,-0l0,10.698c0,1.346 0.265,2.333 0.816,2.963c0.53,0.628 1.428,0.944 2.672,0.944c1.224,0 2.101,-0.318 2.652,-0.95c0.53,-0.634 0.815,-1.628 0.815,-2.982l0,-10.673l3.692,-0Z" style="fill:#eef7f4;fill-rule:nonzero;"/><path d="M757.317,215.599l-3.713,0l0,-14.389l-4.732,-0l0,-3.084l13.197,-0l-0,3.084l-4.752,-0l-0,14.389Z" style="fill:#eef7f4;fill-rule:nonzero;"/><rect x="769.636" y="198.126" width="3.704" height="17.472" style="fill:#eef7f4;"/><path d="M798.497,206.839c0,2.892 -0.714,5.115 -2.142,6.668c-1.427,1.554 -3.487,2.331 -6.159,2.331c-2.693,-0 -4.753,-0.777 -6.18,-2.331c-1.428,-1.553 -2.142,-3.784 -2.142,-6.693c-0,-2.908 0.714,-5.127 2.142,-6.661c1.448,-1.534 3.508,-2.301 6.2,-2.301c2.672,0 4.732,0.773 6.16,2.317c1.407,1.546 2.121,3.77 2.121,6.67Zm-12.748,-0c0,1.952 0.367,3.422 1.122,4.41c0.734,0.987 1.836,1.482 3.325,1.482c2.937,0 4.426,-1.964 4.426,-5.892c-0,-3.937 -1.469,-5.905 -4.406,-5.905c-1.489,0 -2.59,0.498 -3.345,1.489c-0.755,0.991 -1.122,2.464 -1.122,4.416Z" style="fill:#eef7f4;fill-rule:nonzero;"/><path d="M822.524,215.599l-4.711,0l-7.608,-13.219l-0.102,0c0.142,2.336 0.224,4 0.224,4.997l0,8.222l-3.304,0l-0,-17.473l4.671,-0l7.587,13.086l0.082,-0c-0.123,-2.27 -0.184,-3.875 -0.184,-4.816l0,-8.27l3.345,-0l0,17.473Z" style="fill:#eef7f4;fill-rule:nonzero;"/><path d="M842.125,210.747c0,1.577 -0.571,2.821 -1.693,3.728c-1.142,0.908 -2.712,1.363 -4.752,1.363c-1.856,-0 -3.508,-0.351 -4.936,-1.053l-0,-3.44c1.183,0.526 2.162,0.895 2.978,1.111c0.836,0.214 1.57,0.322 2.243,0.322c0.816,0 1.449,-0.155 1.877,-0.467c0.428,-0.31 0.653,-0.771 0.653,-1.385c-0,-0.342 -0.102,-0.648 -0.286,-0.913c-0.204,-0.268 -0.469,-0.525 -0.836,-0.771c-0.388,-0.247 -1.142,-0.643 -2.264,-1.183c-1.081,-0.504 -1.877,-0.986 -2.407,-1.446c-0.53,-0.463 -0.959,-1.002 -1.285,-1.614c-0.326,-0.614 -0.469,-1.332 -0.469,-2.152c-0,-1.546 0.51,-2.761 1.57,-3.645c1.041,-0.885 2.489,-1.327 4.345,-1.327c0.897,-0 1.774,0.108 2.59,0.324c0.836,0.214 1.693,0.516 2.591,0.908l-1.204,2.88c-0.918,-0.384 -1.693,-0.649 -2.305,-0.802c-0.612,-0.151 -1.203,-0.226 -1.795,-0.226c-0.713,-0 -1.244,0.163 -1.611,0.489c-0.387,0.326 -0.571,0.753 -0.571,1.279c0,0.326 0.082,0.612 0.224,0.855c0.164,0.242 0.408,0.479 0.735,0.705c0.326,0.227 1.101,0.635 2.345,1.224c1.632,0.781 2.754,1.565 3.366,2.35c0.591,0.785 0.897,1.746 0.897,2.886Z" style="fill:#eef7f4;fill-rule:nonzero;"/></g><g><path d="M126.241,179.176l715.874,-0c0.855,-0 1.551,-0.695 1.551,-1.552c0,-0.856 -0.696,-1.551 -1.551,-1.551l-715.874,0c-0.856,0 -1.55,0.695 -1.55,1.551c0,0.857 0.694,1.552 1.55,1.552Z" style="fill:#10bab2;"/></g><g><path d="M481.125,50.224c-10.31,-0 -19.607,6.119 -23.687,15.589c-1.003,2.329 0.071,5.029 2.399,6.032c2.329,1.004 5.029,-0.07 6.032,-2.399c2.628,-6.1 8.616,-10.041 15.256,-10.041c6.639,-0 12.627,3.941 15.255,10.041c0.748,1.736 2.44,2.776 4.218,2.776c0.607,-0 1.223,-0.121 1.814,-0.377c2.329,-1.002 3.403,-3.703 2.4,-6.032c-4.08,-9.47 -13.378,-15.589 -23.687,-15.589Z" style="fill:#64ccc9;fill-rule:nonzero;"/></g><g><path d="M517.042,52.506c-7.971,-12.16 -21.398,-19.42 -35.917,-19.42c-14.52,-0 -27.947,7.26 -35.918,19.42c-1.39,2.12 -0.797,4.966 1.323,6.356c0.776,0.508 1.649,0.751 2.512,0.751c1.496,0 2.962,-0.73 3.844,-2.074c6.268,-9.563 16.825,-15.273 28.239,-15.273c11.414,0 21.97,5.71 28.239,15.273c1.39,2.12 4.235,2.712 6.356,1.322c2.12,-1.389 2.712,-4.235 1.322,-6.355Z" style="fill:#00bab3;fill-rule:nonzero;"/></g></g></g></g></svg>